<?xml version="1.0" encoding="UTF-8" standalone="no" ?>
<!DOCTYPE svg PUBLIC "-//W3C//DTD SVG 1.1//EN" "http://www.w3.org/Graphics/SVG/1.1/DTD/svg11.dtd">
<svg xmlns="http://www.w3.org/2000/svg" xmlns:xlink="http://www.w3.org/1999/xlink" version="1.1" width="1080" height="1080" viewBox="0 0 1080 1080" xml:space="preserve">
<desc>Created with Fabric.js 5.2.4</desc>
<defs>
</defs>
<g transform="matrix(1 0 0 1 540 540)" id="a3b461ef-34e3-40c0-ba7d-f6c7e2df341f"  >
<rect style="stroke: none; stroke-width: 1; stroke-dasharray: none; stroke-linecap: butt; stroke-dashoffset: 0; stroke-linejoin: miter; stroke-miterlimit: 4; fill: rgb(255,255,255); fill-rule: nonzero; opacity: 1; visibility: hidden;" vector-effect="non-scaling-stroke"  x="-540" y="-540" rx="0" ry="0" width="1080" height="1080" />
</g>
<g transform="matrix(1 0 0 1 540 540)" id="f9518bab-385b-48c9-90b6-3f9bfabbb027"  >
</g>
<g transform="matrix(5.4 0 0 5.4 540 540)" id="95ada5a7-71a7-4753-a949-b48e679e6988"  >
<path style="stroke: rgb(0,0,0); stroke-width: 0; stroke-dasharray: none; stroke-linecap: butt; stroke-dashoffset: 0; stroke-linejoin: miter; stroke-miterlimit: 4; fill: rgb(255,255,255); fill-rule: nonzero; opacity: 1;" vector-effect="non-scaling-stroke"  transform=" translate(-190, -189.99)" d="M 282.83 170.73 L 282.56 170.04 L 256.42 101.82 C 255.88816237369588 100.48292267912402 254.9464564516972 99.34867465411446 253.73000000000002 98.58 C 251.23681453513302 97.03230184743333 248.0429227664042 97.2039735300025 245.73000000000002 99.01 C 244.61332337075052 99.91705108587878 243.80324215417158 101.1461398282744 243.41000000000003 102.53 L 225.76000000000002 156.53 L 154.29 156.53 L 136.64 102.53 C 136.25720823168356 101.13860148833241 135.44537495700223 99.90335516952847 134.32 99 C 132.00707723359582 97.1939735300025 128.813185464867 97.02230184743333 126.32 98.57 C 125.10627359198936 99.34177843185367 124.16539055705245 100.47503532151745 123.63 101.80999999999999 L 97.44 170 L 97.17999999999999 170.69 C 89.44950991924833 190.888540765201 96.01474693012453 213.76492562918577 113.28 226.79 L 113.37 226.85999999999999 L 113.61 227.02999999999997 L 153.43 256.84999999999997 L 173.13 271.76 L 185.13 280.82 C 188.01470179553982 283.01023402368014 192.00529820446016 283.01023402368014 194.89 280.82 L 206.89 271.76 L 226.58999999999997 256.84999999999997 L 266.65 226.84999999999997 L 266.75 226.76999999999995 C 283.97487080079367 213.74375478112856 290.5274827738871 190.90741305400462 282.83 170.72999999999996 Z" stroke-linecap="round" />
</g>
</svg>